<?xml version="1.0" standalone="no"?><!DOCTYPE svg PUBLIC "-//W3C//DTD SVG 1.1//EN" "http://www.w3.org/Graphics/SVG/1.1/DTD/svg11.dtd"><svg t="1559055225399" class="icon" style="" viewBox="0 0 1024 1024" version="1.1" xmlns="http://www.w3.org/2000/svg" p-id="5478" id="mx_n_1559055225400" xmlns:xlink="http://www.w3.org/1999/xlink" width="200" height="200"><defs><style type="text/css"></style></defs><path d="M938.653867 796.422827 471.951423 796.422827 199.092054 1023.744008 220.05498 796.422827 85.346133 796.422827C53.915965 796.422827 28.45895 770.965813 28.45895 739.564089L28.45895 56.889457C28.45895 25.487733 53.915965 0.002276 85.346133 0.002276L938.653867 0.002276C970.055591 0.002276 995.54105 25.487733 995.54105 56.889457L995.54105 739.564089C995.54105 770.965813 970.055591 796.422827 938.653867 796.422827ZM938.653867 56.889457 85.346133 56.889457 85.346133 739.564089 280.412281 739.564089 255.495695 910.367853 454.686163 739.564089 938.653867 739.564089 938.653867 56.889457ZM284.735707 458.854287 335.848841 433.994589C369.184728 497.253135 435.515184 540.430507 512 540.430507 592.922016 540.430507 662.40971 492.076402 693.555442 422.75937L744.668576 447.647513C704.250232 535.879533 615.392454 597.317689 512 597.317689 413.016303 597.317689 327.344207 541.056266 284.735707 458.854287Z" p-id="5479" fill="#ffffff"></path></svg>